<svg xmlns="http://www.w3.org/2000/svg" xmlns:xlink="http://www.w3.org/1999/xlink" width="500" zoomAndPan="magnify" viewBox="0 0 375 374.999991" height="500" preserveAspectRatio="xMidYMid meet" version="1.0"><path fill="#6368d9" d="M 131.4375 360.617188 L 100.109375 307.855469 L 40.753906 294.664062 L 46.523438 233.660156 L 6.128906 187.496094 L 46.523438 141.328125 L 40.753906 80.324219 L 100.109375 67.132812 L 131.4375 14.371094 L 187.496094 38.28125 L 243.554688 14.371094 L 274.878906 67.132812 L 334.234375 80.324219 L 328.464844 141.328125 L 368.859375 187.496094 L 328.464844 233.660156 L 334.234375 294.664062 L 274.878906 307.855469 L 243.554688 360.617188 L 187.496094 336.707031 Z M 145.449219 318.574219 L 187.496094 300.4375 L 230.363281 318.574219 L 253.445312 279 L 298.785156 268.285156 L 294.664062 222.117188 L 325.167969 187.496094 L 294.664062 152.046875 L 298.785156 105.878906 L 253.445312 95.988281 L 229.539062 56.417969 L 187.496094 74.554688 L 144.625 56.417969 L 121.542969 95.988281 L 76.203125 105.878906 L 80.324219 152.046875 L 49.820312 187.496094 L 80.324219 222.117188 L 76.203125 269.109375 L 121.542969 279 Z M 187.496094 187.496094 Z M 170.183594 246.027344 L 263.339844 152.871094 L 240.253906 128.960938 L 170.183594 199.035156 L 134.734375 164.410156 L 111.652344 187.496094 Z M 170.183594 246.027344 " fill-opacity="1" fill-rule="nonzero"/></svg>