<svg xmlns="http://www.w3.org/2000/svg" xmlns:xlink="http://www.w3.org/1999/xlink" width="500" zoomAndPan="magnify" viewBox="0 0 375 374.999991" height="500" preserveAspectRatio="xMidYMid meet" version="1.0"><path fill="#6368d9" d="M 187.496094 187.496094 C 162.460938 187.496094 141.027344 178.582031 123.199219 160.753906 C 105.371094 142.925781 96.457031 121.492188 96.457031 96.457031 C 96.457031 71.421875 105.371094 49.988281 123.199219 32.160156 C 141.027344 14.332031 162.460938 5.414062 187.496094 5.414062 C 212.535156 5.414062 233.96875 14.332031 251.796875 32.160156 C 269.625 49.988281 278.539062 71.421875 278.539062 96.457031 C 278.539062 121.492188 269.625 142.925781 251.796875 160.753906 C 233.96875 178.582031 212.535156 187.496094 187.496094 187.496094 Z M 5.414062 369.578125 L 5.414062 305.851562 C 5.414062 292.953125 8.734375 281.097656 15.375 270.289062 C 22.011719 259.476562 30.832031 251.226562 41.832031 245.535156 C 65.351562 233.777344 89.25 224.957031 113.527344 219.078125 C 137.804688 213.199219 162.460938 210.257812 187.496094 210.257812 C 212.535156 210.257812 237.191406 213.199219 261.46875 219.078125 C 285.746094 224.957031 309.644531 233.777344 333.164062 245.535156 C 344.164062 251.226562 352.984375 259.476562 359.621094 270.289062 C 366.261719 281.097656 369.578125 292.953125 369.578125 305.851562 L 369.578125 369.578125 Z M 50.9375 324.058594 L 324.058594 324.058594 L 324.058594 305.851562 C 324.058594 301.679688 323.015625 297.886719 320.929688 294.472656 C 318.84375 291.058594 316.09375 288.402344 312.679688 286.503906 C 292.195312 276.261719 271.519531 268.582031 250.65625 263.460938 C 229.792969 258.339844 208.742188 255.777344 187.496094 255.777344 C 166.253906 255.777344 145.203125 258.339844 124.339844 263.460938 C 103.476562 268.582031 82.800781 276.261719 62.316406 286.503906 C 58.902344 288.402344 56.152344 291.058594 54.066406 294.472656 C 51.980469 297.886719 50.9375 301.679688 50.9375 305.851562 Z M 187.496094 141.976562 C 200.015625 141.976562 210.730469 137.519531 219.648438 128.605469 C 228.5625 119.691406 233.019531 108.976562 233.019531 96.457031 C 233.019531 83.9375 228.5625 73.222656 219.648438 64.308594 C 210.730469 55.394531 200.015625 50.9375 187.496094 50.9375 C 174.980469 50.9375 164.261719 55.394531 155.347656 64.308594 C 146.433594 73.222656 141.976562 83.9375 141.976562 96.457031 C 141.976562 108.976562 146.433594 119.691406 155.347656 128.605469 C 164.261719 137.519531 174.980469 141.976562 187.496094 141.976562 Z M 187.496094 96.457031 Z M 187.496094 324.058594 Z M 187.496094 324.058594 " fill-opacity="1" fill-rule="nonzero"/></svg>