<svg xmlns="http://www.w3.org/2000/svg" xmlns:xlink="http://www.w3.org/1999/xlink" width="500" zoomAndPan="magnify" viewBox="0 0 375 374.999991" height="500" preserveAspectRatio="xMidYMid meet" version="1.0"><path fill="#6368d9" d="M 43.777344 372.285156 C 32.484375 372.285156 22.816406 368.265625 14.777344 360.222656 C 6.734375 352.179688 2.714844 342.515625 2.714844 331.222656 L 2.714844 43.777344 C 2.714844 32.484375 6.734375 22.816406 14.777344 14.777344 C 22.816406 6.734375 32.484375 2.714844 43.777344 2.714844 L 187.5 2.714844 L 187.5 43.777344 L 43.777344 43.777344 L 43.777344 331.222656 L 187.5 331.222656 L 187.5 372.285156 Z M 269.625 290.15625 L 241.394531 260.386719 L 293.75 208.03125 L 125.902344 208.03125 L 125.902344 166.96875 L 293.75 166.96875 L 241.394531 114.613281 L 269.625 84.839844 L 372.285156 187.5 Z M 269.625 290.15625 " fill-opacity="1" fill-rule="nonzero"/></svg>