<svg xmlns="http://www.w3.org/2000/svg" xmlns:xlink="http://www.w3.org/1999/xlink" width="500" zoomAndPan="magnify" viewBox="0 0 375 374.999991" height="500" preserveAspectRatio="xMidYMid meet" version="1.0"><path fill="#6368d9" d="M 137.316406 369.972656 L 130.015625 311.578125 C 126.0625 310.058594 122.335938 308.234375 118.839844 306.105469 C 115.34375 303.976562 111.921875 301.695312 108.574219 299.261719 L 54.289062 322.070312 L 4.109375 235.394531 L 51.09375 199.8125 C 50.792969 197.683594 50.640625 195.632812 50.640625 193.65625 L 50.640625 181.335938 C 50.640625 179.359375 50.792969 177.308594 51.09375 175.179688 L 4.109375 139.597656 L 54.289062 52.921875 L 108.574219 75.730469 C 111.921875 73.296875 115.417969 71.015625 119.066406 68.886719 C 122.71875 66.757812 126.367188 64.933594 130.015625 63.414062 L 137.316406 5.019531 L 237.675781 5.019531 L 244.976562 63.414062 C 248.929688 64.933594 252.65625 66.757812 256.152344 68.886719 C 259.648438 71.015625 263.070312 73.296875 266.417969 75.730469 L 320.703125 52.921875 L 370.882812 139.597656 L 323.898438 175.179688 C 324.199219 177.308594 324.351562 179.359375 324.351562 181.335938 L 324.351562 193.65625 C 324.351562 195.632812 324.046875 197.683594 323.441406 199.8125 L 370.429688 235.394531 L 320.246094 322.070312 L 266.417969 299.261719 C 263.070312 301.695312 259.574219 303.976562 255.925781 306.105469 C 252.273438 308.234375 248.625 310.058594 244.976562 311.578125 L 237.675781 369.972656 Z M 169.25 333.476562 L 205.289062 333.476562 L 211.675781 285.121094 C 221.101562 282.6875 229.84375 279.113281 237.90625 274.398438 C 245.964844 269.6875 253.339844 263.984375 260.03125 257.292969 L 305.191406 275.996094 L 322.984375 244.976562 L 283.75 215.324219 C 285.273438 211.066406 286.335938 206.578125 286.945312 201.867188 C 287.554688 197.152344 287.859375 192.363281 287.859375 187.496094 C 287.859375 182.628906 287.554688 177.839844 286.945312 173.125 C 286.335938 168.414062 285.273438 163.925781 283.75 159.667969 L 322.984375 130.015625 L 305.191406 98.996094 L 260.03125 118.15625 C 253.339844 111.160156 245.964844 105.304688 237.90625 100.59375 C 229.84375 95.878906 221.101562 92.304688 211.675781 89.871094 L 205.742188 41.515625 L 169.703125 41.515625 L 163.316406 89.871094 C 153.890625 92.304688 145.148438 95.878906 137.085938 100.59375 C 129.027344 105.304688 121.652344 111.007812 114.960938 117.699219 L 69.800781 98.996094 L 52.007812 130.015625 L 91.238281 159.210938 C 89.71875 163.773438 88.65625 168.335938 88.046875 172.898438 C 87.4375 177.460938 87.132812 182.324219 87.132812 187.496094 C 87.132812 192.363281 87.4375 197.074219 88.046875 201.636719 C 88.65625 206.199219 89.71875 210.761719 91.238281 215.324219 L 52.007812 244.976562 L 69.800781 275.996094 L 114.960938 256.835938 C 121.652344 263.832031 129.027344 269.6875 137.085938 274.398438 C 145.148438 279.113281 153.890625 282.6875 163.316406 285.121094 Z M 188.410156 251.363281 C 206.046875 251.363281 221.101562 245.128906 233.570312 232.660156 C 246.039062 220.191406 252.273438 205.136719 252.273438 187.496094 C 252.273438 169.855469 246.039062 154.800781 233.570312 142.332031 C 221.101562 129.863281 206.046875 123.628906 188.410156 123.628906 C 170.464844 123.628906 155.335938 129.863281 143.019531 142.332031 C 130.699219 154.800781 124.542969 169.855469 124.542969 187.496094 C 124.542969 205.136719 130.699219 220.191406 143.019531 232.660156 C 155.335938 245.128906 170.464844 251.363281 188.410156 251.363281 Z M 187.496094 187.496094 Z M 187.496094 187.496094 " fill-opacity="1" fill-rule="nonzero"/></svg>