<?xml version="1.0" encoding="UTF-8"?>
<svg width="1024px" height="1024px" viewBox="0 0 1024 1024" version="1.1" xmlns="http://www.w3.org/2000/svg" xmlns:xlink="http://www.w3.org/1999/xlink">
    <!-- Generator: Sketch 55.1 (78136) - https://sketchapp.com -->
    <title>Google_logo</title>
    <desc>Created with Sketch.</desc>
    <g id="Google_logo" stroke="none" stroke-width="1" fill="none" fill-rule="evenodd">
        <g id="super-g" fill="#000000">
            <path d="M512,197.973333 C608.142222,197.973333 672.995556,239.502222 709.973333,274.204444 L854.471111,133.12 C765.724444,50.6311111 650.24,0 512,0 C311.751111,0 138.808889,114.915556 54.6133333,282.168889 L220.16,410.737778 C261.688889,287.288889 376.604444,197.973333 512,197.973333 L512,197.973333 Z" id="Shape" fill="#EA4335"></path>
            <path d="M1003.52,523.377778 C1003.52,481.28 1000.10667,450.56 992.711111,418.702222 L512,418.702222 L512,608.711111 L794.168889,608.711111 C788.48,655.928889 757.76,727.04 689.493333,774.826667 L851.057778,899.982222 C947.768889,810.666667 1003.52,679.253333 1003.52,523.377778 L1003.52,523.377778 Z" id="Shape" fill="#4285F4"></path>
            <path d="M220.728889,613.262222 C209.92,581.404444 203.662222,547.271111 203.662222,512 C203.662222,476.728889 209.92,442.595556 220.16,410.737778 L54.6133333,282.168889 C19.9111111,351.573333 0,429.511111 0,512 C0,594.488889 19.9111111,672.426667 54.6133333,741.831111 L220.728889,613.262222 L220.728889,613.262222 Z" id="Shape" fill="#FBBC05"></path>
            <path d="M512,1024 C650.24,1024 766.293333,978.488889 851.057778,899.982222 L689.493333,774.826667 C646.257778,804.977778 588.231111,826.026667 512,826.026667 C376.604444,826.026667 261.688889,736.711111 220.728889,613.262222 L55.1822222,741.831111 C139.377778,909.084444 311.751111,1024 512,1024 L512,1024 Z" id="Shape" fill="#34A853"></path>
            <polygon id="Shape" fill="none" points="0 0 1024 0 1024 1024 0 1024"></polygon>
        </g>
    </g>
</svg>