<svg width="285" viewBox="0 0 121 24" fill="none" xmlns="http://www.w3.org/2000/svg" role="img" class="Globo__StyledLogo-sc-1pj77oz-0 hivAtK EmailStepHeader__ContaGlobo-sc-12a0hff-1 bkUdaJ"><title>Conta Globo</title><path d="M114.396 15.4185C112.612 15.4185 111.164 13.9736 111.164 12.001C111.164 10.0283 112.614 8.58343 114.396 8.58343C116.18 8.58343 117.627 10.0283 117.627 12.001C117.627 13.9736 116.178 15.4185 114.396 15.4185ZM99.8512 15.4185C98.1241 15.4185 96.6749 14.0572 96.6749 12.001C96.6749 9.97327 98.1241 8.58343 99.8512 8.58343C101.578 8.58343 103.028 9.97327 103.028 12.001C103.028 14.0572 101.578 15.4185 99.8512 15.4185ZM85.1675 15.4185C83.3851 15.4185 81.936 13.9736 81.936 12.001C81.936 10.0283 83.3851 8.58343 85.1675 8.58343C86.9518 8.58343 88.3989 10.0283 88.3989 12.001C88.3989 13.9736 86.9498 15.4185 85.1675 15.4185ZM65.3268 15.39C63.571 15.39 62.0953 14.0001 62.0953 11.9724C62.0953 9.91621 63.5731 8.5549 65.3268 8.5549C67.0826 8.5549 68.5317 9.91621 68.5317 11.9724C68.5317 14.0001 67.0826 15.39 65.3268 15.39ZM114.396 5.33301C110.801 5.33301 107.792 8.13917 107.792 12.001C107.792 15.8627 110.745 18.6689 114.396 18.6689C117.991 18.6689 121 15.8627 121 12.001C121 8.13917 118.046 5.33301 114.396 5.33301ZM85.1654 5.33301C81.5701 5.33301 78.5614 8.13917 78.5614 12.001C78.5614 15.8627 81.5149 18.6689 85.1654 18.6689C88.7607 18.6689 91.7694 15.8627 91.7694 12.001C91.7694 8.13917 88.8159 5.33301 85.1654 5.33301ZM69.3105 5.55514C68.8935 5.55514 68.6421 5.8058 68.6421 6.22153V6.94294C67.8899 6.02589 66.4959 5.33097 65.104 5.33097C61.7049 5.33097 58.778 8.22069 58.778 11.9989C58.778 15.7772 61.5373 18.3897 65.0202 18.3897C66.5797 18.3897 67.7795 17.6683 68.4745 16.9163C68.4459 19.5554 67.0539 20.7496 64.6564 20.7496C63.3748 20.7496 62.1771 20.3603 60.7831 19.4718C60.4213 19.2212 60.0023 19.3047 59.8081 19.694L58.9721 21.3324C58.778 21.7216 58.8332 22.0824 59.2236 22.333C60.9507 23.4437 62.9844 24 64.7402 24C69.337 24 71.8736 21.5281 71.8736 15.8322V6.22357C71.8736 5.80784 71.6222 5.55718 71.2052 5.55718H69.3105V5.55514ZM100.24 5.33301C98.9028 5.33301 97.5926 5.91584 96.7281 6.8064V0.916923C96.7281 0.501195 96.4766 0.250536 96.0597 0.250536H93.9973C93.5804 0.250536 93.3289 0.501195 93.3289 0.916923V17.7804C93.3289 18.1961 93.5804 18.4468 93.9973 18.4468H95.8635C96.2804 18.4468 96.5318 18.1961 96.5318 17.7804V17.059C97.3392 17.976 98.8456 18.6709 100.321 18.6709C103.581 18.6709 106.396 15.7262 106.396 12.003C106.396 8.22476 103.553 5.33505 100.238 5.33505L100.24 5.33301ZM74.9681 0.138453C74.1608 -0.222252 73.6028 0.138453 73.6028 1.02697V17.6683C73.6028 18.5568 74.1608 18.9175 74.9681 18.5568L76.0269 18.084C76.6953 17.7784 77.0019 17.3341 77.0019 16.6106V2.08259C77.0019 1.36118 76.6953 0.914885 76.0269 0.609203L74.9681 0.136415V0.138453Z" fill="white"></path><path d="M0 12.0295C0 8.26756 2.71233 5.88324 6.11346 5.88324C7.02507 5.88324 7.93871 6.05442 8.55394 6.301C9.12012 6.54759 9.49008 6.89199 9.49008 7.38312C9.49008 7.8987 9.07106 8.14529 8.79922 8.14529C8.38021 8.14529 7.56672 7.65416 6.16048 7.65416C3.91621 7.65416 2.04395 9.32522 2.04395 12.005C2.04395 14.6848 3.99184 16.3315 6.26063 16.3315C7.81403 16.3315 8.52942 15.716 9.02201 15.716C9.36744 15.716 9.63929 15.9626 9.63929 16.3804C9.63929 16.8715 9.29386 17.2893 8.67863 17.5848C8.03683 17.9047 6.97806 18.1248 5.99083 18.1248C2.76138 18.1248 0 15.7894 0 12.0295Z" fill="white"></path><path d="M10.0828 11.9561C10.0828 8.46523 12.8933 5.86082 16.2474 5.86082C19.6015 5.86082 22.4365 8.46727 22.4365 11.9561C22.4365 15.445 19.626 18.1513 16.2474 18.1513C12.8687 18.1513 10.0828 15.4715 10.0828 11.9561ZM20.462 11.9806C20.462 9.39858 18.6368 7.65416 16.2453 7.65416C13.8539 7.65416 12.0532 9.42304 12.0532 11.9806C12.0532 14.5381 13.952 16.3804 16.2453 16.3804C18.5387 16.3804 20.462 14.5605 20.462 11.9806Z" fill="white"></path><path d="M34.4406 10.5541V16.9693C34.4406 17.6092 34.1197 18.027 33.4534 18.027C32.8627 18.027 32.4927 17.6581 32.4927 16.9693V10.5785C32.4927 8.44078 31.3093 7.52985 29.5351 7.52985C27.5137 7.52985 26.2321 8.93191 26.2321 11.0452V16.9693C26.2321 17.6092 25.8867 18.027 25.2449 18.027C24.6031 18.027 24.2597 17.6581 24.2597 16.9693V6.98981C24.2597 6.37437 24.6051 5.98106 25.2203 5.98106C25.7865 5.98106 26.181 6.32546 26.181 6.98981V7.87425C26.97 6.57204 28.3006 5.85878 30.0277 5.85878C32.6665 5.85878 34.4406 7.33421 34.4406 10.5541Z" fill="white"></path><path d="M43.0927 16.9469C43.0927 17.2913 42.921 17.5379 42.6246 17.7335C42.083 17.9801 41.294 18.1513 40.505 18.1513C38.3609 18.1513 37.251 17.0203 37.251 14.6115V7.53189H35.8959C35.5014 7.53189 35.2051 7.23639 35.2051 6.81863C35.2051 6.40086 35.5014 6.10537 35.8959 6.10537H37.251V3.54987C37.251 2.90997 37.6455 2.49221 38.2362 2.49221C38.8269 2.49221 39.2235 2.88552 39.2235 3.54987V6.10537H42.0339C42.4284 6.10537 42.7248 6.40086 42.7248 6.81863C42.7248 7.23639 42.4284 7.53189 42.0339 7.53189H39.2235V14.3894C39.2235 15.9626 39.8407 16.5515 41.0487 16.5515C41.8132 16.5515 42.3303 16.2805 42.504 16.2805C42.8249 16.2805 43.0968 16.5271 43.0968 16.9449L43.0927 16.9469Z" fill="white"></path><path d="M55.3216 7.01426V16.8715C55.3216 17.5848 55.0007 18.027 54.3344 18.027C53.7171 18.027 53.3492 17.6337 53.3492 16.8715V15.6916C52.5357 17.2893 50.7861 18.1248 48.9854 18.1248C46.175 18.1248 43.1908 15.8138 43.1908 11.9541C43.1908 8.09434 46.0257 5.85878 48.9854 5.85878C50.8352 5.85878 52.5112 6.62095 53.3492 8.24311V7.01426C53.3492 6.39882 53.6947 5.98106 54.361 5.98106C54.9517 5.98106 55.3216 6.37437 55.3216 7.01426ZM53.3738 11.9806C53.3738 9.34968 51.5996 7.67861 49.3063 7.67861C47.013 7.67861 45.2143 9.37413 45.2143 11.9806C45.2143 14.587 47.1377 16.3559 49.3063 16.3559C51.4749 16.3559 53.3738 14.6604 53.3738 11.9806Z" fill="white"></path></svg>