<svg role="img" aria-label="Conta Globo" width="195" height="24" xmlns="http://www.w3.org/2000/svg">
<path d="M27.254 19.198a9.572 9.572 0 0 1-3.223-.55 8.304 8.304 0 0 1-2.739-1.595 7.745 7.745 0 0 1-1.892-2.53c-.47-.99-.704-2.108-.704-3.355 0-1.247.231-2.369.693-3.366a7.421 7.421 0 0 1 1.87-2.519 8.434 8.434 0 0 1 2.706-1.573 9.32 9.32 0 0 1 3.179-.55c.748 0 1.415.055 2.002.165.587.11 1.078.268 1.474.473.807.455 1.21 1.107 1.21 1.958 0 .513-.14.902-.418 1.166-.279.264-.638.396-1.078.396-.117 0-.253-.018-.407-.055a24.756 24.756 0 0 0-.539-.121c-.25-.059-.528-.114-.836-.165a5.883 5.883 0 0 0-.968-.077c-.601 0-1.166.099-1.694.297-.528.198-.986.48-1.375.847s-.697.81-.924 1.331a4.327 4.327 0 0 0-.341 1.749c0 .675.121 1.276.363 1.804s.568.975.979 1.342c.41.367.891.649 1.441.847a5.06 5.06 0 0 0 1.727.297c.381 0 .733-.033 1.056-.099.323-.066.616-.136.88-.209.161-.044.315-.084.462-.121.147-.037.293-.055.44-.055.381 0 .7.147.957.44.257.293.385.653.385 1.078 0 .484-.103.891-.308 1.221-.205.33-.477.598-.814.803-.44.25-.964.433-1.573.55-.609.117-1.272.176-1.991.176zm14.168.022a8.647 8.647 0 0 1-3.168-.583 8.16 8.16 0 0 1-2.629-1.639 7.845 7.845 0 0 1-1.804-2.541c-.447-.99-.671-2.086-.671-3.289 0-1.188.224-2.273.671-3.256a7.877 7.877 0 0 1 1.804-2.53 8.16 8.16 0 0 1 2.629-1.639 8.647 8.647 0 0 1 3.168-.583c1.1 0 2.152.194 3.157.583a8.132 8.132 0 0 1 2.64 1.639 7.877 7.877 0 0 1 1.804 2.53c.447.983.671 2.068.671 3.256 0 1.203-.224 2.299-.671 3.289a7.845 7.845 0 0 1-1.804 2.541 8.16 8.16 0 0 1-2.629 1.639 8.647 8.647 0 0 1-3.168.583zm0-3.894c.572 0 1.104-.11 1.595-.33.491-.22.917-.517 1.276-.891a3.97 3.97 0 0 0 .836-1.32 4.398 4.398 0 0 0 .297-1.617c0-.572-.099-1.107-.297-1.606a3.998 3.998 0 0 0-.836-1.309 3.894 3.894 0 0 0-1.276-.88 3.972 3.972 0 0 0-1.595-.319c-.572 0-1.104.106-1.595.319a3.894 3.894 0 0 0-1.276.88c-.36.374-.638.81-.836 1.309a4.312 4.312 0 0 0-.297 1.606c0 .572.099 1.111.297 1.617.198.506.477.946.836 1.32.36.374.785.671 1.276.891.491.22 1.023.33 1.595.33zM63.928 3.182c.66 0 1.18.183 1.562.55.381.367.572.88.572 1.54V17.24c0 .572-.165 1.041-.495 1.408-.33.367-.788.55-1.375.55-.293 0-.557-.04-.792-.121a2.743 2.743 0 0 1-.682-.352 4.385 4.385 0 0 1-.671-.594 16.566 16.566 0 0 1-.737-.847l-5.456-6.798v6.622c0 .66-.183 1.173-.55 1.54-.367.367-.887.55-1.562.55-.66 0-1.173-.183-1.54-.55-.367-.367-.55-.88-.55-1.54V5.25c0-.616.158-1.115.473-1.496.315-.381.803-.572 1.463-.572.557 0 1.012.132 1.364.396.352.264.719.63 1.1 1.1l5.808 7.304v-6.71c0-.66.18-1.173.539-1.54.36-.367.869-.55 1.529-.55zm14.894.198c.484 0 .898.172 1.243.517.345.345.517.759.517 1.243 0 .499-.172.92-.517 1.265a1.695 1.695 0 0 1-1.243.517h-2.596v10.076c0 .616-.209 1.133-.627 1.551-.418.418-.935.627-1.551.627-.308 0-.594-.055-.858-.165a2.126 2.126 0 0 1-.693-.462 2.243 2.243 0 0 1-.649-1.573V6.922h-2.552c-.499 0-.917-.172-1.254-.517a1.74 1.74 0 0 1-.506-1.265c0-.484.169-.898.506-1.243a1.684 1.684 0 0 1 1.254-.517h9.526zm15.752 13.002c.117.337.176.667.176.99 0 .513-.165.95-.495 1.309-.33.36-.84.539-1.529.539-.66 0-1.162-.169-1.507-.506-.345-.337-.62-.814-.825-1.43-.03-.103-.062-.213-.099-.33a6.66 6.66 0 0 0-.121-.352h-4.708a9.785 9.785 0 0 0-.22.66c-.205.587-.495 1.06-.869 1.419-.374.36-.92.539-1.639.539-.572 0-1.023-.169-1.353-.506-.33-.337-.495-.763-.495-1.276 0-.147.011-.293.033-.44.022-.147.07-.323.143-.528l3.982-11.198c.264-.748.62-1.287 1.067-1.617.447-.33 1.023-.495 1.727-.495.704 0 1.272.165 1.705.495.433.33.781.862 1.045 1.595l3.982 11.132zm-5.28-2.992c-.22-.821-.451-1.672-.693-2.552-.242-.88-.495-1.76-.759-2.64a179.038 179.038 0 0 0-1.474 5.192h2.926zm24.684-3.674c.381 0 .704.062.968.187s.477.29.638.495c.161.205.275.433.341.682.066.25.099.506.099.77 0 1.13-.19 2.145-.572 3.047a6.756 6.756 0 0 1-1.584 2.31 6.99 6.99 0 0 1-2.409 1.474c-.931.345-1.947.517-3.047.517-1.188 0-2.295-.194-3.322-.583a7.932 7.932 0 0 1-2.662-1.639 7.604 7.604 0 0 1-1.76-2.508c-.425-.968-.638-2.024-.638-3.168 0-1.188.224-2.28.671-3.278a7.606 7.606 0 0 1 1.87-2.574c.8-.719 1.745-1.28 2.838-1.683s2.284-.605 3.575-.605c.557 0 1.126.037 1.705.11.58.073 1.118.19 1.617.352.733.205 1.305.491 1.716.858.41.367.616.85.616 1.452 0 .47-.14.854-.418 1.155a1.33 1.33 0 0 1-1.012.451 2.27 2.27 0 0 1-.737-.132c-.257-.088-.546-.18-.869-.275-.323-.095-.69-.187-1.1-.275a6.76 6.76 0 0 0-1.408-.132c-.66 0-1.265.11-1.815.33a4.17 4.17 0 0 0-1.419.924 4.282 4.282 0 0 0-.935 1.43 4.85 4.85 0 0 0-.341 1.848c0 .66.103 1.254.308 1.782.205.528.491.979.858 1.353s.796.664 1.287.869a4.038 4.038 0 0 0 1.573.308c.44 0 .854-.062 1.243-.187.389-.125.733-.3 1.034-.528.3-.227.539-.499.715-.814.176-.315.271-.664.286-1.045h-1.716a1.58 1.58 0 0 1-1.672-1.628c0-.47.154-.865.462-1.188.308-.323.711-.477 1.21-.462h3.806zm6.05 9.284c-.69 0-1.232-.19-1.628-.572-.396-.381-.594-.924-.594-1.628V5.382c0-.675.194-1.21.583-1.606.389-.396.957-.594 1.705-.594.748 0 1.316.19 1.705.572.389.381.583.924.583 1.628v9.988h3.322c.513-.015.939.147 1.276.484.337.337.506.77.506 1.298 0 .572-.169 1.023-.506 1.353-.337.33-.763.495-1.276.495h-5.676zm16.764.22a8.647 8.647 0 0 1-3.168-.583 8.16 8.16 0 0 1-2.629-1.639 7.845 7.845 0 0 1-1.804-2.541c-.447-.99-.671-2.086-.671-3.289 0-1.188.224-2.273.671-3.256a7.877 7.877 0 0 1 1.804-2.53 8.16 8.16 0 0 1 2.629-1.639 8.647 8.647 0 0 1 3.168-.583c1.1 0 2.152.194 3.157.583a8.132 8.132 0 0 1 2.64 1.639 7.877 7.877 0 0 1 1.804 2.53c.447.983.671 2.068.671 3.256 0 1.203-.224 2.299-.671 3.289a7.845 7.845 0 0 1-1.804 2.541 8.16 8.16 0 0 1-2.629 1.639 8.647 8.647 0 0 1-3.168.583zm0-3.894c.572 0 1.104-.11 1.595-.33.491-.22.917-.517 1.276-.891a3.97 3.97 0 0 0 .836-1.32 4.398 4.398 0 0 0 .297-1.617c0-.572-.099-1.107-.297-1.606a3.998 3.998 0 0 0-.836-1.309 3.894 3.894 0 0 0-1.276-.88 3.972 3.972 0 0 0-1.595-.319c-.572 0-1.104.106-1.595.319a3.894 3.894 0 0 0-1.276.88c-.36.374-.638.81-.836 1.309a4.312 4.312 0 0 0-.297 1.606c0 .572.099 1.111.297 1.617.198.506.477.946.836 1.32.36.374.785.671 1.276.891.491.22 1.023.33 1.595.33zm18.678-4.752c1.027.22 1.837.649 2.431 1.287.594.638.891 1.463.891 2.475 0 .69-.147 1.32-.44 1.892a4.207 4.207 0 0 1-1.276 1.474c-.557.41-1.236.73-2.035.957-.8.227-1.705.341-2.717.341h-3.102c-.675 0-1.21-.19-1.606-.572-.396-.381-.594-.924-.594-1.628V5.58c0-.675.19-1.21.572-1.606.381-.396.924-.594 1.628-.594h2.882c1.907 0 3.373.33 4.4.99 1.027.66 1.54 1.613 1.54 2.86 0 .85-.246 1.57-.737 2.156a3.365 3.365 0 0 1-1.837 1.144v.044zm-1.518-2.684c0-.513-.18-.91-.539-1.188-.36-.279-.854-.418-1.485-.418h-.594v3.3h.594c.66 0 1.162-.143 1.507-.429.345-.286.517-.708.517-1.265zm-1.98 8.206c.763 0 1.357-.158 1.782-.473.425-.315.638-.774.638-1.375 0-.557-.213-.994-.638-1.309-.425-.315-1.012-.473-1.76-.473h-.66v3.63h.638zm16.06 3.124a8.647 8.647 0 0 1-3.168-.583 8.16 8.16 0 0 1-2.629-1.639 7.845 7.845 0 0 1-1.804-2.541c-.447-.99-.671-2.086-.671-3.289 0-1.188.224-2.273.671-3.256a7.877 7.877 0 0 1 1.804-2.53 8.16 8.16 0 0 1 2.629-1.639 8.647 8.647 0 0 1 3.168-.583c1.1 0 2.152.194 3.157.583a8.132 8.132 0 0 1 2.64 1.639 7.877 7.877 0 0 1 1.804 2.53c.447.983.671 2.068.671 3.256 0 1.203-.224 2.299-.671 3.289a7.845 7.845 0 0 1-1.804 2.541 8.16 8.16 0 0 1-2.629 1.639 8.647 8.647 0 0 1-3.168.583zm0-3.894c.572 0 1.104-.11 1.595-.33.491-.22.917-.517 1.276-.891a3.97 3.97 0 0 0 .836-1.32 4.398 4.398 0 0 0 .297-1.617c0-.572-.099-1.107-.297-1.606a3.998 3.998 0 0 0-.836-1.309 3.894 3.894 0 0 0-1.276-.88 3.972 3.972 0 0 0-1.595-.319c-.572 0-1.104.106-1.595.319a3.894 3.894 0 0 0-1.276.88c-.36.374-.638.81-.836 1.309a4.312 4.312 0 0 0-.297 1.606c0 .572.099 1.111.297 1.617.198.506.477.946.836 1.32.36.374.785.671 1.276.891.491.22 1.023.33 1.595.33z" fill="#0669de" fill-rule="nonzero"></path></svg>