<svg viewBox="0 0 64 64" fill="none" xmlns="http://www.w3.org/2000/svg" aria-hidden="true" class="IconSocial__Svg-sc-99lfqj-0 bOKvVV"><path d="M63.7375 32.0323C63.7375 14.5303 49.4605 0.326172 31.8687 0.326172C14.2769 0.326172 0 14.5303 0 32.0323C0 47.869 11.6513 60.9956 26.9128 63.3466V41.1752H18.7733V32.0323H26.9128V25.0445C26.9128 17.1098 31.639 12.7017 38.9251 12.7017C42.4041 12.7017 46.0144 13.3547 46.0144 13.3547V21.0935H42.0103C38.039 21.0935 36.7918 23.5752 36.7918 26.0568V31.9996H45.6533L44.2421 41.1425H36.7918V63.3139C52.0862 60.9956 63.7375 47.869 63.7375 32.0323Z" fill="white"></path><path d="M44.2754 41.2078L45.6866 32.065H36.8251V26.1221C36.8251 23.6078 38.1051 21.1589 42.0436 21.1589H46.0477V13.3874C46.0477 13.3874 42.4374 12.7344 38.9584 12.7344C31.6723 12.7344 26.9461 17.1425 26.9461 25.0772V32.065H18.8066V41.2078H26.9461V63.3793C28.5543 63.6405 30.2282 63.7711 31.902 63.7711C33.5759 63.7711 35.2497 63.6405 36.8579 63.3793V41.2078H44.2754Z" fill="#1877F2"></path></svg>