<svg width="272" height="56" viewBox="0 0 272 56" fill="none" xmlns="http://www.w3.org/2000/svg">
<path d="M36.3777 2.60301V41.2788C36.3777 43.3448 37.7449 44.184 39.7279 43.3448L42.3267 42.2474C43.9676 41.537 44.7195 40.5038 44.7195 38.8252V5.05691C44.7195 3.37756 43.9676 2.34508 42.3267 1.63474L39.7279 0.536938C39.2142 0.319725 38.7421 0.214787 38.3241 0.214787C37.1283 0.214787 36.3777 1.07189 36.3777 2.60301ZM194.059 0.795612C193.033 0.795612 192.418 1.37606 192.418 2.34507V41.537C192.418 42.5054 193.033 43.0865 194.059 43.0865H199.187C200.213 43.0865 200.828 42.5054 200.828 41.537V2.34507C200.828 1.37606 200.213 0.795612 199.187 0.795612H194.059ZM86.4311 0.795612C85.4049 0.795612 84.7894 1.37606 84.7894 2.34507V41.537C84.7894 42.5054 85.4049 43.0865 86.4311 43.0865H91.0124C92.0378 43.0865 92.6533 42.5054 92.6533 41.537V39.858C94.6362 41.9887 98.3288 43.6028 101.953 43.6028C109.953 43.6028 116.859 36.7592 116.859 28.1071C116.859 19.3262 109.884 12.6112 101.747 12.6112C98.4655 12.6112 95.2517 13.967 93.132 16.0331V2.34507C93.132 1.37606 92.5165 0.795612 91.4907 0.795612H86.4311ZM92.9952 28.1071C92.9952 23.3936 96.5507 20.1652 100.79 20.1652C105.03 20.1652 108.586 23.3936 108.586 28.1071C108.586 32.8851 105.03 36.0486 100.79 36.0486C96.5507 36.0486 92.9952 32.8851 92.9952 28.1071ZM204.657 28.1071C204.657 36.8882 211.632 43.6028 219.769 43.6028C223.598 43.6028 226.812 42.0536 228.864 39.7938V41.537C228.864 42.5054 229.479 43.0865 230.504 43.0865H235.086C236.112 43.0865 236.727 42.5054 236.727 41.537V14.677C236.727 13.7087 236.112 13.1275 235.086 13.1275H230.504C229.479 13.1275 228.864 13.7087 228.864 14.677V16.5497C226.949 14.3544 223.462 12.6112 219.837 12.6112C211.495 12.6112 204.657 19.3262 204.657 28.1071ZM212.931 28.1071C212.931 23.3292 216.487 20.1652 220.726 20.1652C224.966 20.1652 228.522 23.3292 228.522 28.1071C228.522 32.8203 224.966 36.0486 220.726 36.0486C216.487 36.0486 212.931 32.8203 212.931 28.1071ZM164.382 16.4209V14.677C164.382 13.7087 163.767 13.1275 162.741 13.1275H158.16C157.134 13.1275 156.519 13.7087 156.519 14.677V53.9342C156.519 54.9021 157.134 55.4834 158.16 55.4834H163.22C164.246 55.4834 164.861 54.9021 164.861 53.9342V40.1813C166.844 42.1182 170.058 43.6028 173.409 43.6028C181.751 43.6028 188.588 36.8882 188.588 28.1071C188.588 19.3262 181.614 12.6112 173.477 12.6112C169.648 12.6112 166.434 14.1607 164.382 16.4209ZM164.724 28.1071C164.724 23.3936 168.28 20.1652 172.519 20.1652C176.759 20.1652 180.315 23.3936 180.315 28.1071C180.315 32.8851 176.759 36.0486 172.519 36.0486C168.28 36.0486 164.724 32.8851 164.724 28.1071ZM120.278 28.1071C120.278 37.0819 127.526 43.6028 136.484 43.6028C145.305 43.6028 152.69 37.0819 152.69 28.1071C152.69 19.1324 145.441 12.6112 136.484 12.6112C127.663 12.6112 120.278 19.1324 120.278 28.1071ZM128.552 28.1071C128.552 23.523 132.108 20.1652 136.484 20.1652C140.86 20.1652 144.416 23.523 144.416 28.1071C144.416 32.6912 140.86 36.0486 136.484 36.0486C132.108 36.0486 128.552 32.6912 128.552 28.1071ZM48.5489 28.1071C48.5489 37.0819 55.7969 43.6028 64.7546 43.6028C73.5756 43.6028 80.9604 37.0819 80.9604 28.1071C80.9604 19.1324 73.7124 12.6112 64.7546 12.6112C55.9341 12.6112 48.5489 19.1324 48.5489 28.1071ZM56.8227 28.1071C56.8227 23.523 60.3786 20.1652 64.7546 20.1652C69.1311 20.1652 72.6866 23.523 72.6866 28.1071C72.6866 32.6912 69.1311 36.0486 64.7546 36.0486C60.3786 36.0486 56.8227 32.6912 56.8227 28.1071ZM0 28.1071C0 36.8882 6.76965 42.9577 15.3169 42.9577C19.1461 42.9577 22.0865 41.2788 23.796 39.5355C23.7275 45.6695 20.3085 48.446 14.428 48.446C11.2825 48.446 8.34243 47.5419 4.92332 45.4759C4.03446 44.8946 3.00855 45.0881 2.53027 45.992L0.478732 49.8017C0 50.7058 0.136911 51.5453 1.09422 52.1262C5.33361 54.7087 10.3252 56.0004 14.6332 56.0004C25.9156 56.0004 32.1379 50.2533 32.1379 37.017V14.677C32.1379 13.7087 31.5229 13.1275 30.497 13.1275H25.8471C24.8217 13.1275 24.2062 13.7087 24.2062 14.677V16.3559C22.3599 14.2253 18.9409 12.6112 15.5222 12.6112C7.17975 12.6112 0 19.3262 0 28.1071ZM8.13723 28.0429C8.13723 23.2646 11.7613 20.101 16.0689 20.101C20.3769 20.101 23.9328 23.2646 23.9328 28.0429C23.9328 32.7557 20.3769 35.9845 16.0689 35.9845C11.7613 35.9845 8.13723 32.7557 8.13723 28.0429ZM264.694 13.1275C263.668 13.1275 263.053 13.5149 262.78 14.3544L256.352 31.9812L248.967 14.3544C248.625 13.5149 248.078 13.1275 247.121 13.1275H240.898C239.667 13.1275 239.189 13.8378 239.736 14.9353L252.454 42.0536L251.428 44.1198C249.856 47.3481 248.283 48.5747 246.71 48.5747C245.821 48.5747 244.864 48.3165 243.975 47.9293C243.018 47.4773 242.197 47.6064 241.719 48.5102L239.941 51.7383C239.531 52.5139 239.599 53.2881 240.42 53.8693C242.061 55.0963 244.043 56.0004 246.779 56.0004C252.864 56.0004 256.42 51.7383 259.702 43.8618L271.805 14.9353C272.284 13.8378 271.874 13.1275 270.643 13.1275H264.694Z" fill="url(#paint0_linear_5090_2)"/>
<defs>
<linearGradient id="paint0_linear_5090_2" x1="91.0714" y1="28.0084" x2="271.326" y2="59.3886" gradientUnits="userSpaceOnUse">
<stop stop-color="#FB0234"/>
<stop offset="1" stop-color="#FF8F01"/>
</linearGradient>
</defs>
</svg>
