<svg width="496" height="80" viewBox="0 0 496 80" fill="none" xmlns="http://www.w3.org/2000/svg"><g filter="url(#filter0_d_3694_138359)"><g clip-path="url(#clip0_3694_138359)"><rect x="392" y="16" width="44" height="44" rx="6" fill="#FF6700"></rect><path fill-rule="evenodd" clip-rule="evenodd" d="M403.302 27.3018C406.253 24.3506 409.819 22.875 414 22.875C418.198 22.875 421.769 24.3465 424.711 27.2885C427.653 30.2312 429.125 33.8016 429.125 37.9999C429.125 42.1986 427.653 45.769 424.711 48.7111C421.769 51.6539 418.198 53.125 414 53.125C409.801 53.125 406.231 51.6539 403.288 48.7111C400.346 45.769 398.875 42.1985 398.875 37.9999C398.875 33.8195 400.35 30.253 403.302 27.3018ZM414.041 47.4653C416.674 47.4653 418.948 46.5269 420.801 44.676C422.655 42.8249 423.594 40.553 423.594 37.923C423.594 37.3336 423.117 36.856 422.527 36.856C421.938 36.856 421.46 37.3336 421.46 37.923C421.46 39.9946 420.751 41.7094 419.293 43.166C417.834 44.6229 416.117 45.3311 414.041 45.3311C411.967 45.3311 410.256 44.6236 408.808 43.1683C407.359 41.7115 406.654 39.9959 406.654 37.9232C406.654 37.3337 406.176 36.8561 405.587 36.8561C404.998 36.8561 404.52 37.3337 404.52 37.9232C404.52 40.5516 405.454 42.8228 407.295 44.6733C409.137 46.5259 411.407 47.4653 414.041 47.4653Z" fill="white"></path></g></g><g filter="url(#filter1_d_3694_138359)"><g clip-path="url(#clip1_3694_138359)"><rect x="340" y="10" width="56" height="56" fill="url(#paint0_linear_3694_138359)"></rect><path fill-rule="evenodd" clip-rule="evenodd" d="M356.625 33.4994C356.625 39.874 361.417 44.28 367.469 44.28C370.179 44.28 372.261 43.06 373.472 41.7947C373.422 46.2486 371.001 48.2625 366.839 48.2625C364.614 48.2625 362.531 47.6072 360.11 46.1074C359.48 45.6866 358.754 45.825 358.416 46.483L356.963 49.2481C356.625 49.9034 356.721 50.5135 357.398 50.937C360.399 52.8123 363.934 53.75 366.982 53.75C374.971 53.75 379.375 49.5784 379.375 39.9672V23.7497C379.375 23.0465 378.94 22.6256 378.214 22.6256H374.924C374.198 22.6256 373.763 23.0465 373.763 23.7497V24.9698C372.456 23.4221 370.036 22.25 367.615 22.25C361.709 22.25 356.625 27.1248 356.625 33.4994ZM362.384 33.4518C362.384 29.9835 364.951 27.6846 367.999 27.6846C371.05 27.6846 373.567 29.9808 373.567 33.4518C373.567 36.8749 371.05 39.2164 367.999 39.2164C364.951 39.219 362.384 36.8749 362.384 33.4518Z" fill="white"></path></g></g><g filter="url(#filter2_d_3694_138359)"><g clip-path="url(#clip2_3694_138359)"><rect x="60" y="16" width="44" height="44" rx="6" fill="#1E4C9A"></rect><path d="M95.75 37.4188C95.75 41.1401 94.3624 44.3569 91.6502 47.069C88.9381 49.7812 85.7213 51.1057 81.9369 51.1057C78.1525 51.1057 74.9358 49.7181 72.2867 47.069C69.5745 44.3569 68.25 41.1401 68.25 37.3557C68.25 33.5713 69.6376 30.3546 72.2867 27.6424C73.6743 26.3179 75.125 25.3087 76.7649 24.6149C78.4048 23.9211 80.1709 23.6057 82.0631 23.6057C83.9553 23.6057 85.7844 23.9842 87.5505 24.8041C89.3165 25.561 90.8303 26.6332 92.0917 28.0839L87.172 32.5621C86.6044 31.8683 85.7844 31.3637 84.7752 30.9222L83.4507 30.4807C83.0092 30.3546 82.5046 30.3546 82.0631 30.3546C80.0447 30.3546 78.4048 31.0484 77.0803 32.3729C75.6927 33.7605 75.0619 35.4004 75.0619 37.3557C75.0619 39.2479 75.7557 40.9509 77.0803 42.3385C78.4679 43.7261 80.1078 44.4199 82.0631 44.4199C83.3876 44.4199 84.6491 44.1046 85.7844 43.4108C86.9197 42.717 87.8028 41.7078 88.4335 40.3202H82.3784V34.8328L95.6238 34.8959L95.75 36.5988V37.4188Z" fill="white"></path></g></g><g filter="url(#filter3_d_3694_138359)"><rect x="100" y="10" width="56" height="56" rx="8" fill="#FF7400"></rect><path d="M141.652 52.9297L145.5 46.1051V44.747L110.5 48.6518L111.651 51.7126C123.162 51.1962 133.702 51.4544 141.652 52.9297ZM118.702 43.489C123.915 41.9762 129.709 41.3495 136.183 41.7544L139.134 25.3402C139.421 23.7546 138.774 22.6103 137.191 22.2793C134.577 21.7263 131.915 21.4417 129.246 21.4297C125.284 21.4297 121.183 22.0939 117.335 23.7535C115.935 24.3438 115.464 25.4505 115.752 26.9621L118.702 43.489Z" fill="black"></path></g><g filter="url(#filter4_d_3694_138359)"><g clip-path="url(#clip3_3694_138359)"><rect x="152" y="6" width="64" height="64" fill="#06AA48"></rect><path fill-rule="evenodd" clip-rule="evenodd" d="M190.422 33.5138C191.019 31.3548 192.856 29.793 195.429 29.793C197.542 29.793 199.379 31.1251 199.976 33.5138H190.422ZM195.292 25.0625C189.504 25.0625 184.727 29.8398 184.727 36.0871C184.727 42.4721 189.504 47.1116 195.613 47.1116C200.528 47.1116 204.203 44.9527 205.489 41.0481C205.719 40.3591 205.398 39.8538 204.617 39.8538H201.126C200.528 39.8538 200.161 40.0835 199.793 40.5888C198.921 41.7371 197.634 42.2425 195.843 42.2425C193.041 42.2425 190.928 40.4509 190.377 37.7408H204.846C205.535 37.7408 205.949 37.3273 205.949 36.6382V36.5923C205.949 30.1614 201.952 25.0625 195.292 25.0625V25.0625Z" fill="white"></path><path fill-rule="evenodd" clip-rule="evenodd" d="M172.797 41.6908C169.903 41.6908 167.469 39.394 167.469 36.0407C167.469 32.6415 169.903 30.3906 172.797 30.3906C175.691 30.3906 178.08 32.6415 178.08 36.0407C178.08 39.394 175.691 41.6908 172.797 41.6908M182.487 25.43H179.364C178.675 25.43 178.261 25.8434 178.261 26.5324V27.7268C177.021 26.2109 174.724 25.0625 172.427 25.0625C166.823 25.0625 162 29.8398 162 36.087C162 42.3343 166.548 46.6522 172.29 46.6522C174.862 46.6522 176.837 45.4579 177.986 44.2176C177.94 48.5815 175.643 50.5568 171.692 50.5568C169.579 50.5568 167.604 49.9137 165.307 48.4437C164.71 48.0303 164.021 48.1681 163.7 48.8113L162.321 51.5215C162 52.1645 162.092 52.7617 162.735 53.1751C165.583 55.0125 168.936 55.9312 171.83 55.9312C179.41 55.9312 183.59 51.843 183.59 42.4262V26.5324C183.59 25.8434 183.176 25.43 182.487 25.43" fill="white"></path></g></g><g filter="url(#filter5_d_3694_138359)"><rect x="280" y="6" width="64" height="64" rx="8" fill="#C4170C"></rect><path fill-rule="evenodd" clip-rule="evenodd" d="M326.32 19.1806L319.204 23.3593C318.801 23.5548 318.547 23.9623 318.547 24.4098V27.538C318.547 28.3998 319.429 28.985 320.206 28.6085L322.393 27.3215V45.662C322.393 46.3072 322.916 46.8302 323.562 46.8302H326.832C327.478 46.8302 328.001 46.3072 328.001 45.8297V20.3977C328.001 19.3672 327.096 18.802 326.32 19.1806ZM299.487 36.2084C299.487 39.5709 301.93 41.874 304.835 41.874C307.739 41.874 310.137 39.5709 310.137 36.2084C310.137 32.7993 307.739 30.5428 304.835 30.5428C301.93 30.5428 299.487 32.8004 299.487 36.2084ZM310.321 26.6739C310.321 25.9832 310.736 25.569 311.427 25.569H314.563C315.254 25.569 315.668 25.9832 315.668 26.6739V42.6103C315.668 52.0526 311.474 56.1525 303.867 56.1525C300.962 56.1525 297.597 55.2308 294.738 53.3885C294.093 52.9743 294.001 52.3758 294.323 51.7306L295.706 49.0133C296.03 48.3681 296.721 48.2304 297.32 48.6446C299.624 50.1182 301.607 50.7634 303.728 50.7634C307.692 50.7634 309.998 48.7823 310.043 44.407C308.891 45.6508 306.909 46.8478 304.327 46.8478C298.564 46.8478 294 42.5181 294 36.254C294 29.9898 298.842 25.1992 304.466 25.1992C306.771 25.1992 309.076 26.3508 310.321 27.871V26.6739Z" fill="white"></path></g><g filter="url(#filter6_d_3694_138359)"><g clip-path="url(#clip4_3694_138359)"><path d="M278 2H218C214.686 2 212 4.68629 212 8V68C212 71.3137 214.686 74 218 74H278C281.314 74 284 71.3137 284 68V8C284 4.68629 281.314 2 278 2Z" fill="url(#paint1_linear_3694_138359)"></path><path d="M224.477 39.6636C222.951 39.6636 221.23 39.138 219.495 38.1372C219.358 38.058 219.264 37.9356 219.221 37.7844C219.178 37.6332 219.199 37.4748 219.279 37.338L219.934 36.0204C220.035 35.8404 220.236 35.7252 220.445 35.7252C220.553 35.7252 220.661 35.754 220.747 35.8116C222.173 36.726 223.267 37.0572 224.405 37.0572C226.385 37.0572 227.573 35.8476 227.573 34.026C226.954 34.5804 226.219 35.2212 224.873 35.2212C221.799 35.2212 219.3 32.6652 219.3 29.5332C219.3 26.4012 221.799 23.8452 224.873 23.8452C225.831 23.8452 226.558 24.1476 227.703 25.0548C227.731 24.7596 227.58 24.0324 228.012 24.0324H229.863C230.187 24.0324 230.446 24.2988 230.446 24.6156V29.418V29.454C230.446 29.4828 230.446 29.5116 230.446 29.5404C230.446 29.5692 230.446 29.598 230.446 29.6268V29.67V31.5924C230.46 34.8396 230.093 36.6972 228.711 38.1084C227.695 39.1308 226.039 39.6636 224.477 39.6636ZM224.873 26.5884C223.383 26.5884 222.173 27.906 222.173 29.5332C222.173 31.1532 223.383 32.478 224.873 32.478C226.327 32.478 227.537 31.1892 227.573 29.6052V29.454C227.537 27.8772 226.327 26.5884 224.873 26.5884Z" fill="white"></path><path d="M254.63 35.2219C253.824 35.2219 252.787 34.8619 251.829 33.9979C251.829 34.4515 251.93 35.0419 251.347 35.0419H249.648C249.324 35.0419 249.064 34.7755 249.064 34.4587V20.0515C249.064 19.7275 249.331 19.4683 249.648 19.4683H251.347C251.671 19.4683 251.93 19.7347 251.93 20.0515V25.0195C252.859 24.0907 253.903 23.8387 254.63 23.8387C257.704 23.8387 260.203 26.3947 260.203 29.5267C260.203 32.6587 257.704 35.2219 254.63 35.2219ZM254.63 26.5891C253.14 26.5891 251.93 27.9067 251.93 29.5339C251.93 31.1539 253.14 32.4787 254.63 32.4787C256.12 32.4787 257.33 31.1611 257.33 29.5339C257.33 27.9139 256.12 26.5891 254.63 26.5891Z" fill="white"></path><path d="M242.042 40.918C241.235 40.918 240.198 41.278 239.241 42.142C239.241 41.6884 239.342 41.098 238.758 41.098H237.052C236.728 41.098 236.469 41.3644 236.469 41.6812V56.0884C236.469 56.4124 236.735 56.6716 237.052 56.6716H238.751C239.075 56.6716 239.334 56.4052 239.334 56.0884V51.1204C240.263 52.0492 241.307 52.3012 242.034 52.3012C245.109 52.3012 247.607 49.7452 247.607 46.6132C247.622 43.474 245.116 40.918 242.042 40.918ZM242.042 49.5508C240.551 49.5508 239.342 48.2332 239.342 46.606C239.342 44.9788 240.551 43.6612 242.042 43.6612C243.532 43.6612 244.742 44.9788 244.742 46.606C244.742 48.2332 243.532 49.5508 242.042 49.5508Z" fill="white"></path><path d="M266.994 35.2212C263.855 35.2212 261.299 32.6652 261.299 29.5332C261.299 26.4012 263.855 23.8452 266.994 23.8452C270.133 23.8452 272.689 26.4012 272.689 29.5332C272.689 32.6652 270.133 35.2212 266.994 35.2212ZM266.994 26.6028C265.439 26.6028 264.172 27.9204 264.172 29.5332C264.172 31.146 265.439 32.4636 266.994 32.4636C268.549 32.4636 269.816 31.146 269.816 29.5332C269.816 27.9204 268.549 26.6028 266.994 26.6028Z" fill="white"></path><path d="M242.033 35.2212C238.894 35.2212 236.338 32.6652 236.338 29.5332C236.338 26.4012 238.894 23.8452 242.033 23.8452C245.172 23.8452 247.728 26.4012 247.728 29.5332C247.728 32.6652 245.179 35.2212 242.033 35.2212ZM242.033 26.6028C240.478 26.6028 239.211 27.9204 239.211 29.5332C239.211 31.146 240.478 32.4636 242.033 32.4636C243.588 32.4636 244.855 31.146 244.855 29.5332C244.863 27.9204 243.595 26.6028 242.033 26.6028Z" fill="white"></path><path d="M249.634 52.119C249.31 52.119 249.051 51.8526 249.051 51.5358V37.1286C249.051 36.8046 249.317 36.5454 249.634 36.5454H251.333C251.657 36.5454 251.916 36.8118 251.916 37.1286V51.5358C251.916 51.8598 251.65 52.119 251.333 52.119H249.634Z" fill="white"></path><path d="M268.506 56.7177C267.023 56.7105 265.957 56.2713 265.453 55.8681C265.223 55.6809 265.165 55.3713 265.316 55.1121L266.123 53.7297C266.231 53.5497 266.425 53.4345 266.634 53.4417C266.756 53.4417 266.879 53.4849 266.98 53.5569C267.102 53.6505 267.548 54.0105 268.117 54.0249C268.513 54.0249 269.507 53.6505 270.119 52.1529L265.849 41.9145C265.77 41.7345 265.792 41.5257 265.9 41.3601C266.008 41.1946 266.195 41.0938 266.389 41.0938L268.24 41.1009C268.47 41.1009 268.686 41.2377 268.772 41.4537L271.487 48.0273L273.848 41.4753C273.935 41.2449 274.158 41.0938 274.403 41.0938H276.21C276.404 41.0938 276.584 41.1945 276.692 41.3529C276.8 41.5113 276.865 41.7345 276.757 42.1593L272.984 52.1745C271.991 54.6153 270.256 56.7249 268.506 56.7177Z" fill="white"></path><path d="M258.85 40.9136C259.656 40.9136 260.7 41.2808 261.658 42.1376C261.658 41.684 261.557 41.0936 262.14 41.0936H263.839C264.163 41.0936 264.43 41.36 264.43 41.684V51.62C264.43 51.944 264.163 52.1168 263.839 52.1168H262.14C261.816 52.1168 261.55 51.944 261.55 51.62V51.1232C260.621 52.052 259.577 52.304 258.85 52.304C255.775 52.304 253.27 49.748 253.27 46.6088C253.27 43.4696 255.775 40.9136 258.85 40.9136ZM258.85 49.5536C260.34 49.5536 261.55 48.236 261.55 46.6088C261.55 44.9888 260.34 43.664 258.85 43.664C257.359 43.664 256.15 44.9816 256.15 46.6088C256.142 48.236 257.359 49.5536 258.85 49.5536Z" fill="white"></path><path d="M232.829 35.2201C232.476 35.2201 232.102 34.9681 232.102 34.2625V20.2369C232.102 19.3441 232.649 19.2793 232.814 19.2793C232.937 19.2793 233.066 19.3081 233.21 19.3657L234.269 19.8337C234.78 20.0713 235.018 20.4817 235.018 21.1225V33.3553C235.018 33.9889 234.78 34.3993 234.283 34.6441L233.218 35.1409C233.066 35.1913 232.937 35.2201 232.829 35.2201Z" fill="white"></path></g></g><defs><filter id="filter0_d_3694_138359" x="388" y="14" width="52" height="52" filterUnits="userSpaceOnUse" color-interpolation-filters="sRGB"><feFlood flood-opacity="0" result="BackgroundImageFix"></feFlood><feColorMatrix in="SourceAlpha" type="matrix" values="0 0 0 0 0 0 0 0 0 0 0 0 0 0 0 0 0 0 127 0" result="hardAlpha"></feColorMatrix><feOffset dy="2"></feOffset><feGaussianBlur stdDeviation="2"></feGaussianBlur><feColorMatrix type="matrix" values="0 0 0 0 0.2 0 0 0 0 0.2 0 0 0 0 0.2 0 0 0 0.24 0"></feColorMatrix><feBlend mode="normal" in2="BackgroundImageFix" result="effect1_dropShadow_3694_138359"></feBlend><feBlend mode="normal" in="SourceGraphic" in2="effect1_dropShadow_3694_138359" result="shape"></feBlend></filter><filter id="filter1_d_3694_138359" x="336" y="8" width="64" height="64" filterUnits="userSpaceOnUse" color-interpolation-filters="sRGB"><feFlood flood-opacity="0" result="BackgroundImageFix"></feFlood><feColorMatrix in="SourceAlpha" type="matrix" values="0 0 0 0 0 0 0 0 0 0 0 0 0 0 0 0 0 0 127 0" result="hardAlpha"></feColorMatrix><feOffset dy="2"></feOffset><feGaussianBlur stdDeviation="2"></feGaussianBlur><feColorMatrix type="matrix" values="0 0 0 0 0.2 0 0 0 0 0.2 0 0 0 0 0.2 0 0 0 0.24 0"></feColorMatrix><feBlend mode="normal" in2="BackgroundImageFix" result="effect1_dropShadow_3694_138359"></feBlend><feBlend mode="normal" in="SourceGraphic" in2="effect1_dropShadow_3694_138359" result="shape"></feBlend></filter><filter id="filter2_d_3694_138359" x="56" y="14" width="52" height="52" filterUnits="userSpaceOnUse" color-interpolation-filters="sRGB"><feFlood flood-opacity="0" result="BackgroundImageFix"></feFlood><feColorMatrix in="SourceAlpha" type="matrix" values="0 0 0 0 0 0 0 0 0 0 0 0 0 0 0 0 0 0 127 0" result="hardAlpha"></feColorMatrix><feOffset dy="2"></feOffset><feGaussianBlur stdDeviation="2"></feGaussianBlur><feColorMatrix type="matrix" values="0 0 0 0 0.2 0 0 0 0 0.2 0 0 0 0 0.2 0 0 0 0.24 0"></feColorMatrix><feBlend mode="normal" in2="BackgroundImageFix" result="effect1_dropShadow_3694_138359"></feBlend><feBlend mode="normal" in="SourceGraphic" in2="effect1_dropShadow_3694_138359" result="shape"></feBlend></filter><filter id="filter3_d_3694_138359" x="96" y="8" width="64" height="64" filterUnits="userSpaceOnUse" color-interpolation-filters="sRGB"><feFlood flood-opacity="0" result="BackgroundImageFix"></feFlood><feColorMatrix in="SourceAlpha" type="matrix" values="0 0 0 0 0 0 0 0 0 0 0 0 0 0 0 0 0 0 127 0" result="hardAlpha"></feColorMatrix><feOffset dy="2"></feOffset><feGaussianBlur stdDeviation="2"></feGaussianBlur><feColorMatrix type="matrix" values="0 0 0 0 0.2 0 0 0 0 0.2 0 0 0 0 0.2 0 0 0 0.24 0"></feColorMatrix><feBlend mode="normal" in2="BackgroundImageFix" result="effect1_dropShadow_3694_138359"></feBlend><feBlend mode="normal" in="SourceGraphic" in2="effect1_dropShadow_3694_138359" result="shape"></feBlend></filter><filter id="filter4_d_3694_138359" x="148" y="4" width="72" height="72" filterUnits="userSpaceOnUse" color-interpolation-filters="sRGB"><feFlood flood-opacity="0" result="BackgroundImageFix"></feFlood><feColorMatrix in="SourceAlpha" type="matrix" values="0 0 0 0 0 0 0 0 0 0 0 0 0 0 0 0 0 0 127 0" result="hardAlpha"></feColorMatrix><feOffset dy="2"></feOffset><feGaussianBlur stdDeviation="2"></feGaussianBlur><feColorMatrix type="matrix" values="0 0 0 0 0.2 0 0 0 0 0.2 0 0 0 0 0.2 0 0 0 0.24 0"></feColorMatrix><feBlend mode="normal" in2="BackgroundImageFix" result="effect1_dropShadow_3694_138359"></feBlend><feBlend mode="normal" in="SourceGraphic" in2="effect1_dropShadow_3694_138359" result="shape"></feBlend></filter><filter id="filter5_d_3694_138359" x="276" y="4" width="72" height="72" filterUnits="userSpaceOnUse" color-interpolation-filters="sRGB"><feFlood flood-opacity="0" result="BackgroundImageFix"></feFlood><feColorMatrix in="SourceAlpha" type="matrix" values="0 0 0 0 0 0 0 0 0 0 0 0 0 0 0 0 0 0 127 0" result="hardAlpha"></feColorMatrix><feOffset dy="2"></feOffset><feGaussianBlur stdDeviation="2"></feGaussianBlur><feColorMatrix type="matrix" values="0 0 0 0 0.2 0 0 0 0 0.2 0 0 0 0 0.2 0 0 0 0.24 0"></feColorMatrix><feBlend mode="normal" in2="BackgroundImageFix" result="effect1_dropShadow_3694_138359"></feBlend><feBlend mode="normal" in="SourceGraphic" in2="effect1_dropShadow_3694_138359" result="shape"></feBlend></filter><filter id="filter6_d_3694_138359" x="208" y="0" width="80" height="80" filterUnits="userSpaceOnUse" color-interpolation-filters="sRGB"><feFlood flood-opacity="0" result="BackgroundImageFix"></feFlood><feColorMatrix in="SourceAlpha" type="matrix" values="0 0 0 0 0 0 0 0 0 0 0 0 0 0 0 0 0 0 127 0" result="hardAlpha"></feColorMatrix><feOffset dy="2"></feOffset><feGaussianBlur stdDeviation="2"></feGaussianBlur><feColorMatrix type="matrix" values="0 0 0 0 0.2 0 0 0 0 0.2 0 0 0 0 0.2 0 0 0 0.24 0"></feColorMatrix><feBlend mode="normal" in2="BackgroundImageFix" result="effect1_dropShadow_3694_138359"></feBlend><feBlend mode="normal" in="SourceGraphic" in2="effect1_dropShadow_3694_138359" result="shape"></feBlend></filter><linearGradient id="paint0_linear_3694_138359" x1="344.912" y1="13.4386" x2="393.053" y2="61.5789" gradientUnits="userSpaceOnUse"><stop stop-color="#0420FC"></stop><stop offset="1" stop-color="#03B4FC"></stop></linearGradient><linearGradient id="paint1_linear_3694_138359" x1="213.334" y1="3.3341" x2="285.334" y2="75.3341" gradientUnits="userSpaceOnUse"><stop offset="0.25" stop-color="#FB0334"></stop><stop offset="0.3576" stop-color="#FB0F2F"></stop><stop offset="0.5544" stop-color="#FC3123"></stop><stop offset="0.8165" stop-color="#FE6610"></stop><stop offset="1" stop-color="#FF8F01"></stop></linearGradient><clipPath id="clip0_3694_138359"><rect x="392" y="16" width="44" height="44" rx="8" fill="white"></rect></clipPath><clipPath id="clip1_3694_138359"><rect x="340" y="10" width="56" height="56" rx="8" fill="white"></rect></clipPath><clipPath id="clip2_3694_138359"><rect x="60" y="16" width="44" height="44" rx="8" fill="white"></rect></clipPath><clipPath id="clip3_3694_138359"><rect x="152" y="6" width="64" height="64" rx="8" fill="white"></rect></clipPath><clipPath id="clip4_3694_138359"><rect x="212" y="2" width="72" height="72" rx="8" fill="white"></rect></clipPath></defs></svg>