<svg width="119" height="26" viewBox="0 0 119 26" fill="none" xmlns="http://www.w3.org/2000/svg">
<path d="M7.88179 7.92509C8.01548 7.92509 8.12244 7.97276 8.20267 8.06814C8.29626 8.14987 8.34306 8.26568 8.34306 8.41555C8.34306 8.52454 8.26284 8.76977 8.10239 9.15125L4.8133 17.3461C4.74645 17.5232 4.65286 17.6526 4.53253 17.7344C4.42557 17.8025 4.29854 17.8366 4.15147 17.8366C4.01777 17.8366 3.89075 17.8025 3.77042 17.7344C3.66346 17.6526 3.57655 17.5232 3.5097 17.3461L0.100277 8.8447C0.0334258 8.68121 0 8.54497 0 8.43598C0 8.28612 0.046796 8.1635 0.140388 8.06814C0.23398 7.97276 0.347627 7.92509 0.48133 7.92509C0.735365 7.92509 0.92255 8.10901 1.04288 8.47686L4.19158 16.5695L7.36035 8.39511C7.46731 8.08176 7.64112 7.92509 7.88179 7.92509Z" fill="white"/>
<path d="M10.476 4.7575C10.2086 4.7575 10.0013 4.66894 9.85428 4.49182C9.7072 4.31471 9.63367 4.11035 9.63367 3.87875C9.63367 3.64714 9.7072 3.44277 9.85428 3.26566C10.0013 3.08855 10.2086 3 10.476 3C10.73 3 10.9306 3.08855 11.0777 3.26566C11.2381 3.44277 11.3183 3.64714 11.3183 3.87875C11.3183 4.11035 11.2381 4.31471 11.0777 4.49182C10.9306 4.66894 10.73 4.7575 10.476 4.7575ZM10.6164 17.9183C10.4693 17.9183 10.349 17.8774 10.2554 17.7957C10.1752 17.7003 10.1351 17.5572 10.1351 17.3665V8.41554C10.1351 8.04769 10.2955 7.86376 10.6164 7.86376C10.9506 7.86376 11.1178 8.04769 11.1178 8.41554V17.3665C11.1178 17.7344 10.9506 17.9183 10.6164 17.9183Z" fill="white"/>
<path d="M17.9503 16.8556C18.1641 16.8556 18.2711 16.9783 18.2711 17.2235C18.2711 17.4278 18.1775 17.5776 17.9904 17.6731C17.7897 17.7684 17.5491 17.8434 17.2683 17.8978C16.9876 17.966 16.7001 18 16.406 18C15.5904 18 14.982 17.782 14.5809 17.3461C14.1798 16.8965 13.9793 16.1744 13.9793 15.1799V8.78339H12.6756C12.4216 8.78339 12.2946 8.64714 12.2946 8.37466C12.2946 8.1158 12.4216 7.98638 12.6756 7.98638H13.9793V5.59536C13.9793 5.4455 14.026 5.31607 14.1196 5.20708C14.2132 5.09809 14.3336 5.04359 14.4806 5.04359C14.6277 5.04359 14.748 5.09809 14.8416 5.20708C14.9352 5.30245 14.982 5.43188 14.982 5.59536V7.98638H17.5291C17.7831 7.98638 17.9101 8.1158 17.9101 8.37466C17.9101 8.64714 17.7831 8.78339 17.5291 8.78339H14.982V15.0777C14.982 15.827 15.1157 16.3583 15.3832 16.6717C15.6505 16.9714 16.065 17.1213 16.6266 17.1213C16.9876 17.1213 17.2817 17.0804 17.509 16.9987C17.7363 16.9033 17.8833 16.8556 17.9503 16.8556Z" fill="white"/>
<path d="M23.7235 7.78202C24.0578 7.78202 24.2249 7.9387 24.2249 8.25205C24.2249 8.42916 24.1781 8.55859 24.0846 8.64034C23.991 8.72209 23.8707 8.76976 23.7235 8.78339C23.4562 8.81064 23.1687 8.87876 22.8612 8.98775C22.5537 9.08311 22.2395 9.26704 21.9186 9.53952C21.4105 9.96186 21.0228 10.5614 20.7554 11.3379C20.5013 12.1008 20.3743 12.9728 20.3743 13.9537V17.3461C20.3743 17.7139 20.2072 17.8978 19.8729 17.8978C19.7393 17.8978 19.6255 17.857 19.532 17.7752C19.4384 17.6798 19.3916 17.5368 19.3916 17.3461V8.43597C19.3916 8.0545 19.552 7.86377 19.8729 7.86377C19.9932 7.86377 20.1002 7.91145 20.1939 8.00682C20.3008 8.10219 20.3543 8.24524 20.3543 8.43597V10.9496C20.635 9.88694 21.0695 9.09674 21.6578 8.57903C22.2462 8.04769 22.9347 7.78202 23.7235 7.78202Z" fill="white"/>
<path d="M26.2054 4.7575C25.938 4.7575 25.7308 4.66894 25.5836 4.49182C25.4366 4.31471 25.3631 4.11035 25.3631 3.87875C25.3631 3.64714 25.4366 3.44277 25.5836 3.26566C25.7308 3.08855 25.938 3 26.2054 3C26.4594 3 26.66 3.08855 26.8071 3.26566C26.9675 3.44277 27.0477 3.64714 27.0477 3.87875C27.0477 4.11035 26.9675 4.31471 26.8071 4.49182C26.66 4.66894 26.4594 4.7575 26.2054 4.7575ZM26.3458 17.9183C26.1987 17.9183 26.0783 17.8774 25.9847 17.7957C25.9045 17.7003 25.8644 17.5572 25.8644 17.3665V8.41554C25.8644 8.04769 26.0248 7.86376 26.3458 7.86376C26.6801 7.86376 26.8472 8.04769 26.8472 8.41554V17.3665C26.8472 17.7344 26.6801 17.9183 26.3458 17.9183Z" fill="white"/>
<path d="M33.3787 7.78202C34.3949 7.78202 35.2239 8.08856 35.8656 8.70165C36.5074 9.3011 36.8283 10.2412 36.8283 11.5218V17.3461C36.8283 17.7003 36.6612 17.8774 36.3269 17.8774C36.1799 17.8774 36.0596 17.8365 35.9659 17.7548C35.8723 17.6594 35.8255 17.5232 35.8255 17.3461V11.5627C35.8255 10.5408 35.5782 9.80519 35.0835 9.3556C34.6022 8.906 33.9603 8.68121 33.1582 8.68121C32.7036 8.68121 32.2891 8.76295 31.9148 8.92644C31.5538 9.0763 31.2395 9.29429 30.9722 9.58039C30.7047 9.8665 30.4975 10.2071 30.3505 10.6022C30.2033 10.9837 30.1298 11.3992 30.1298 11.8487V17.3461C30.1298 17.7003 29.9627 17.8774 29.6284 17.8774C29.2941 17.8774 29.127 17.7003 29.127 17.3461V8.43597C29.127 8.08175 29.2874 7.90464 29.6084 7.90464C29.7554 7.90464 29.8691 7.94551 29.9493 8.02726C30.0429 8.109 30.0897 8.24524 30.0897 8.43597V9.80519C30.3839 9.15124 30.8116 8.65396 31.3732 8.31336C31.9348 7.95914 32.6033 7.78202 33.3787 7.78202Z" fill="white"/>
<path d="M46.5789 15.8746C46.6859 15.8746 46.7661 15.9087 46.8196 15.9768C46.873 16.045 46.8998 16.1335 46.8998 16.2426C46.8998 16.3243 46.8797 16.406 46.8396 16.4878C46.7995 16.5695 46.726 16.6648 46.619 16.7739C46.2179 17.1281 45.7165 17.421 45.1149 17.6526C44.5265 17.8842 43.8981 18 43.2297 18C42.5076 18 41.8458 17.8774 41.2441 17.6322C40.6559 17.3869 40.1478 17.0464 39.7199 16.6104C39.2921 16.1608 38.9579 15.6227 38.7172 14.9959C38.4765 14.3692 38.3561 13.6676 38.3561 12.891C38.3561 12.1417 38.4765 11.4537 38.7172 10.827C38.9579 10.2003 39.2854 9.66214 39.6999 9.21255C40.1144 8.76295 40.6024 8.41554 41.1639 8.17031C41.7389 7.91145 42.3472 7.78202 42.9889 7.78202C43.5639 7.78202 44.0921 7.87739 44.5733 8.06813C45.068 8.25886 45.4959 8.53135 45.8569 8.88557C46.2179 9.23979 46.4987 9.67576 46.6993 10.1935C46.8998 10.7112 47 11.297 47 11.9509C47 12.1553 46.9599 12.2984 46.8797 12.3801C46.8129 12.4619 46.7126 12.5027 46.5789 12.5027H39.3589V12.8297C39.3589 13.4836 39.4593 14.0763 39.6598 14.6077C39.8603 15.1254 40.1344 15.5682 40.4821 15.936C40.843 16.3038 41.2642 16.5899 41.7455 16.7943C42.2269 16.985 42.7483 17.0805 43.3099 17.0805C43.8313 17.0805 44.306 17.0055 44.7338 16.8556C45.1751 16.6921 45.5828 16.481 45.9572 16.2221C46.0908 16.1404 46.2046 16.0655 46.2981 15.9973C46.3917 15.9156 46.4853 15.8746 46.5789 15.8746ZM42.9889 8.70165C42.5745 8.70165 42.1734 8.77658 41.7856 8.92644C41.4112 9.06268 41.0704 9.26704 40.7628 9.53952C40.4553 9.79838 40.1879 10.1117 39.9607 10.4796C39.7333 10.8474 39.5729 11.2629 39.4793 11.7261H46.1176C46.1042 11.2766 46.0173 10.8678 45.8569 10.5C45.6965 10.1322 45.4758 9.81881 45.1951 9.55996C44.9276 9.28748 44.6068 9.0763 44.2324 8.92644C43.858 8.77658 43.4435 8.70165 42.9889 8.70165Z" fill="white"/>
<path d="M68.6831 0.155372C67.8037 -0.247965 67.1755 0.155373 67.1755 1.11718V19.1433C67.1755 20.1051 67.7723 20.5084 68.6831 20.1051L69.8453 19.6086C70.5677 19.2674 70.9132 18.802 70.9132 18.0263V2.26514C70.9132 1.48949 70.5677 0.993073 69.8453 0.682814L68.6831 0.155372ZM96.3229 5.77107C94.8466 5.77107 93.4333 6.39159 92.491 7.3534V0.993074C92.491 0.527684 92.2083 0.279476 91.7686 0.279476H89.5072C89.036 0.279476 88.7848 0.55871 88.7848 0.993074V19.2674C88.7848 19.7328 89.0674 19.981 89.5072 19.981H91.5487C92.0199 19.981 92.2711 19.7017 92.2711 19.2674V18.4917C93.1506 19.4845 94.7838 20.2292 96.4171 20.2292C99.9663 20.2292 103.044 17.0335 103.044 13.0001C103.044 8.90469 99.9349 5.77107 96.3229 5.77107ZM62.4956 6.01928C62.0245 6.01928 61.7732 6.29851 61.7732 6.73288V7.50853C60.9566 6.51569 59.4176 5.77107 57.9099 5.77107C54.2037 5.77107 51 8.90469 51 13.0001C51 17.0955 54.0152 19.9189 57.8157 19.9189C59.5118 19.9189 60.8309 19.1433 61.5848 18.3366C61.5533 21.191 60.0457 22.4941 57.4074 22.4941C56.0254 22.463 54.7062 22.0597 53.1986 21.0979C52.7903 20.8187 52.3506 20.9117 52.1307 21.3461L51.2199 23.1146C51 23.5179 51.0628 23.9213 51.5025 24.2005C53.3871 25.4105 55.6171 26 57.533 26C62.5584 26 65.3224 23.3318 65.3224 17.1576V6.73288C65.3224 6.26749 65.0397 6.01928 64.6 6.01928H62.4956ZM79.8333 5.77107C75.9072 5.77107 72.6092 8.81162 72.6092 13.0001C72.6092 17.1886 75.8443 20.2292 79.8333 20.2292C83.7594 20.2292 87.0573 17.1886 87.0573 13.0001C87.0573 8.81162 83.8222 5.77107 79.8333 5.77107ZM111.776 5.77107C107.85 5.77107 104.552 8.81162 104.552 13.0001C104.552 17.1886 107.787 20.2292 111.776 20.2292C115.702 20.2292 119 17.1886 119 13.0001C119 8.81162 115.765 5.77107 111.776 5.77107ZM58.1612 16.6612C56.2453 16.6612 54.6434 15.1719 54.6434 12.9691C54.6434 10.7352 56.2453 9.27701 58.1612 9.27701C60.0771 9.27701 61.679 10.7663 61.679 12.9691C61.6476 15.1719 60.0771 16.6612 58.1612 16.6612ZM79.8333 16.6922C77.8859 16.6922 76.3155 15.1409 76.3155 13.0001C76.3155 10.8593 77.8859 9.30803 79.8333 9.30803C81.7806 9.30803 83.351 10.8593 83.351 13.0001C83.3824 15.1409 81.7806 16.6922 79.8333 16.6922ZM95.8831 16.6922C93.9986 16.6922 92.3968 15.203 92.3968 13.0001C92.3968 10.7973 93.9672 9.30803 95.8831 9.30803C97.7677 9.30803 99.3695 10.7973 99.3695 13.0001C99.3695 15.234 97.7677 16.6922 95.8831 16.6922ZM111.776 16.6922C109.829 16.6922 108.258 15.1409 108.258 13.0001C108.258 10.8593 109.829 9.30803 111.776 9.30803C113.723 9.30803 115.294 10.8593 115.294 13.0001C115.325 15.1409 113.723 16.6922 111.776 16.6922Z" fill="white"/>
</svg>
